<?xml version="1.0" standalone="no"?>
<!DOCTYPE svg PUBLIC "-//W3C//DTD SVG 20010904//EN"
 "http://www.w3.org/TR/2001/REC-SVG-20010904/DTD/svg10.dtd">
<svg version="1.0" xmlns="http://www.w3.org/2000/svg"
 width="700.000000pt" height="700.000000pt" viewBox="0 0 700.000000 700.000000"
 preserveAspectRatio="xMidYMid meet">
<metadata>
Created by potrace 1.14, written by Peter Selinger 2001-2017
</metadata>
<g transform="translate(0.000000,700.000000) scale(0.100000,-0.100000)"
fill="#000000" stroke="none">
<path d="M2062 6795 l-2 -205 38 0 c20 -1 433 -1 917 -1 l880 -1 0 -950 0
-951 -75 -19 c-77 -20 -213 -72 -240 -92 -8 -6 -31 -20 -50 -30 -50 -28 -147
-101 -209 -160 -114 -109 -223 -281 -276 -439 -23 -69 -31 -104 -51 -212 -10
-53 -7 -248 5 -320 57 -347 275 -651 584 -811 162 -84 314 -123 502 -129 264
-9 468 -116 599 -313 84 -129 118 -252 118 -432 1 -185 -25 -323 -92 -494
-169 -433 -587 -759 -1040 -813 -84 -10 -270 -10 -340 0 -119 16 -351 85 -395
117 -5 4 -37 22 -70 39 -304 164 -544 479 -628 821 -38 154 -40 202 -41 897
-1 542 1 630 13 620 8 -7 481 -479 1052 -1049 570 -571 1039 -1038 1041 -1038
2 0 4 298 4 663 l-1 662 -205 0 -205 0 0 -162 c0 -90 -2 -163 -6 -163 -3 0
-477 470 -1051 1045 -575 575 -1047 1045 -1049 1045 -3 0 -4 -530 -3 -1177 0
-1209 1 -1214 40 -1396 43 -200 135 -413 253 -588 74 -110 95 -136 194 -238
267 -277 632 -461 1011 -508 80 -10 355 -10 431 0 295 39 564 147 803 324 325
240 546 572 648 973 9 36 18 76 20 90 2 14 7 41 10 60 3 19 8 51 11 70 3 19 5
1257 6 2750 l2 2715 -1576 3 -1576 2 -1 -205z m2739 -219 c3 -30 4 -3922 2
-3928 -2 -4 -39 18 -83 48 -173 119 -360 178 -600 190 -136 6 -216 23 -304 63
-216 98 -362 282 -407 516 -20 100 -10 242 22 339 86 256 290 429 565 481 11
2 84 4 165 4 l145 1 -1 1133 c0 622 1 1140 3 1149 4 15 27 17 248 16 173 0
244 -4 245 -12z"/>
<path d="M4040 3784 c-79 -23 -150 -117 -144 -191 1 -13 2 -33 3 -46 2 -38 57
-111 103 -137 61 -34 140 -33 202 4 96 56 130 182 74 275 -30 50 -98 101 -137
102 -14 0 -33 2 -41 3 -8 2 -35 -3 -60 -10z"/>
</g>
</svg>
